# xmcd
#
# Track frame offsets:
#	150
#	8712
#	20427
#	28542
#	40097
#	51442
#	63182
#	74355
#	88217
#	97945
#	106837
#	121535
#	131772
#	141645
#	152865
#	166237
#	176942
#	187657
#	197740
#	208172
#	218980
#	227327
#	240902
#	250165
#	259460
#	268382
#	279107
#	287532
#	297840
#	307307
#	317665
#
# Disc length: 4434 seconds
#
# Revision: 1
# Processed by: cddbd v1.5.2PL0 Copyright (c) Steve Scherf et al.
# Submitted via: EasyCDDAExtractor 2010.6.0.0
#
DISCID=c511501f
DTITLE=Jenks 'Tex' Carman - The Old Guitar And Me
DYEAR=1900
DGENRE=Country
TTITLE0=Hillbilly Hula
TTITLE1=Casey Jones
TTITLE2=Heartache And Tears
TTITLE3=They Had To Say Goodbye
TTITLE4=You'll Come A Crawlin' Back
TTITLE5=Krish A Boom Ba
TTITLE6=Walking And Crying For You
TTITLE7=My Broken Heart Won't Let Me Sleep
TTITLE8=Honk, Honk, Honk
TTITLE9=Silver Rails Leading Westward
TTITLE10=The Old Guitar And Me
TTITLE11=Love Me Darlin'
TTITLE12=Spanish Dancer
TTITLE13=I Feel Like I Feel
TTITLE14=This Lonely Road
TTITLE15=Little May
TTITLE16=Ozark Rose
TTITLE17=To Win, To Place, To Show
TTITLE18=Fire In The Teepee
TTITLE19=Learning To Do Without You
TTITLE20=Little Black Jack Davey
TTITLE21=My Darling La Roue
TTITLE22=Valley Of The Sun
TTITLE23=Ho-Down 1000
TTITLE24=Maggie's Twist
TTITLE25=I'll Go On Lovin' You
TTITLE26=Aungalala
TTITLE27=Somewhere In This World
TTITLE28=Lobo Of The Border
TTITLE29=Indian Love Song
TTITLE30=Custer's Massacre
EXTD=
EXTT0=
EXTT1=
EXTT2=
EXTT3=
EXTT4=
EXTT5=
EXTT6=
EXTT7=
EXTT8=
EXTT9=
EXTT10=
EXTT11=
EXTT12=
EXTT13=
EXTT14=
EXTT15=
EXTT16=
EXTT17=
EXTT18=
EXTT19=
EXTT20=
EXTT21=
EXTT22=
EXTT23=
EXTT24=
EXTT25=
EXTT26=
EXTT27=
EXTT28=
EXTT29=
EXTT30=
PLAYORDER=
